<?xml version="1.0" encoding="utf-8"?>
<!-- Generator: Adobe Illustrator 27.5.0, SVG Export Plug-In . SVG Version: 6.00 Build 0)  -->
<svg version="1.1"
	 id="svg2" xmlns:sodipodi="http://sodipodi.sourceforge.net/DTD/sodipodi-0.dtd" xmlns:svg="http://www.w3.org/2000/svg" xmlns:cc="http://creativecommons.org/ns#" xmlns:rdf="http://www.w3.org/1999/02/22-rdf-syntax-ns#" xmlns:dc="http://purl.org/dc/elements/1.1/" xmlns:inkscape="http://www.inkscape.org/namespaces/inkscape"
	 xmlns="http://www.w3.org/2000/svg" xmlns:xlink="http://www.w3.org/1999/xlink" x="0px" y="0px" viewBox="0 0 342.1 269.5"
	 style="enable-background:new 0 0 342.1 269.5;" xml:space="preserve">
<style type="text/css">
	.st0{fill:#99F0DD;stroke:#006991;}
	.st1{fill:#F0DBFF;stroke:#006991;}
	.st2{fill:#FFFFFF;}
	.st3{font-family:'Arial-BoldMT';}
	.st4{font-size:6px;}
	.st5{enable-background:new    ;}
</style>
<sodipodi:namedview  bordercolor="#666666" borderopacity="1" gridtolerance="10" guidetolerance="10" id="namedview660" inkscape:current-layer="g8" inkscape:cx="346.63962" inkscape:cy="668.3158" inkscape:pageopacity="0" inkscape:pageshadow="2" inkscape:window-height="1058" inkscape:window-maximized="1" inkscape:window-width="1920" inkscape:window-x="1912" inkscape:window-y="-8" inkscape:zoom="3.2841761" objecttolerance="10" pagecolor="#ffffff" showgrid="false">
	</sodipodi:namedview>
<g>
	<polygon id="_x35_9150_COBRIEUX" class="st0" points="225,164.5 221.5,164.1 209.1,157 206.3,153.3 209.3,149.9 213.8,150.3 
		217.5,155.6 221.8,154.9 	"/>
	<polygon id="_x35_9466_PONT-A-MARCQ" class="st0" points="165.8,172 161.7,174.5 155.1,172.4 153.2,173.9 151.3,170 154.4,164.4 
		161.1,166.9 	"/>
	<polygon id="_x35_9600_TOURMIGNIES" class="st0" points="140.6,188.5 139.7,179 142.4,174.8 146.3,178.5 150.3,187.5 146.3,186.4 	
		"/>
	<g>
		<polygon id="_x35_9022_ATTICHES" class="st0" points="137.5,193.9 137.3,193.9 136.4,184.7 131.8,183.6 127.8,177.8 125.3,177.7 
			122.8,172.1 127.4,164.7 133.8,162.8 135.1,167 140.7,170.7 142.4,174.8 139.7,179 140.6,188.5 		"/>
		<polygon id="_x35_9034_AVELIN" class="st0" points="146.3,178.5 142.4,174.8 140.7,170.7 135.1,167 133.8,162.8 136.5,144.4 
			140,138.7 149,134.7 154.1,147 151.8,148.1 151,158 154.4,164.4 151.3,170 153.2,173.9 		"/>
		<polygon id="_x35_9042_BACHY" class="st0" points="237.1,165.4 225,164.5 221.8,154.9 224,154.2 221.9,143 226.2,141.6 
			232.2,142.9 234.8,147 234,156.4 		"/>
		<polygon id="_x35_9071_BERSEE" class="st0" points="181.8,214.9 165.9,209.5 162.8,202.8 166.1,193.5 165.9,186.6 170.3,183.1 
			181.2,189.4 185,195.7 182.7,203 185.6,206.4 		"/>
		<polygon id="_x35_9096_BOURGHELLES" class="st0" points="221.8,154.9 217.5,155.6 213.8,150.3 215.3,145.5 212.3,123.4 
			223.4,127.1 226.2,141.6 221.9,143 224,154.2 		"/>
		<polygon id="_x35_9123_CAMPHIN-EN-CAREMBAULT" class="st0" points="108.5,190.7 101.9,187.8 88.3,176.1 93.7,167.2 104.8,168.6 
			109.2,174.5 109.2,181.9 110.8,183.7 		"/>
		<polygon id="_x35_9124_CAMPHIN-EN-PEVELE" class="st0" points="223.4,127.1 212.3,123.4 211.9,122.9 214.9,117.3 213,116.3 
			222.6,109.2 229.9,108.7 233.3,116.9 232.3,126 225.2,125.5 		"/>
		<polygon id="_x35_9129_CAPPELLE-EN-PEVELE" class="st0" points="185,195.7 181.2,189.4 170.3,183.1 176.4,178.9 176.6,174.2 
			180.8,171.7 190.5,172.5 197.8,182 198,184.1 193.1,188.1 		"/>
		<polygon id="_x35_9145_CHEMY" class="st0" points="104.8,168.6 93.7,167.2 95.4,160.2 108.2,155.1 111.3,161.9 108.1,165.1 
			104,164.7 		"/>
		<polygon id="_x35_9168_CYSOING" class="st0" points="206.3,153.3 204,156.6 197.7,155.9 192.9,151 197.7,146.4 197.6,141.7 
			193.9,138.9 187,140.4 188,136.7 190.1,132.1 193.7,135.3 195.6,133.8 196.5,131.6 194.2,127.4 201.9,121.9 205.4,125 
			211.9,122.9 212.3,123.4 215.3,145.5 213.8,150.3 209.3,149.9 		"/>
		<polygon id="_x35_9197_ENNEVELIN" class="st0" points="167.8,172.4 165.8,172 161.1,166.9 154.4,164.4 151,158 151.8,148.1 
			154.1,147 155.5,149.1 170.3,149.5 176.5,145.3 178,157.2 170.9,158.4 		"/>
		<polygon id="_x35_9258_GENECH" class="st0" points="221.2,167.7 204.2,174.4 200.1,173.4 197.2,164.8 197.7,155.9 204,156.6 
			206.3,153.3 209.1,157 221.5,164.1 		"/>
		<polygon id="_x35_9266_GONDECOURT" class="st0" points="93.7,167.2 87.6,165.1 88.3,158.1 92.2,155.1 91.9,152.7 89.2,145.9 
			83.9,140.8 89.2,134.7 96.1,140.3 107.3,150.2 108.2,155.1 95.4,160.2 		"/>
		<polygon id="_x35_9304_HERRIN" class="st0" points="88.3,158.1 81.7,143.4 83.9,140.8 89.2,145.9 91.9,152.7 92.2,155.1 		"/>
		<polygon id="_x35_9364_LOUVIL" class="st0" points="192.9,151 185.5,143.5 187,140.4 193.9,138.9 197.6,141.7 197.7,146.4 		"/>
		<polygon id="_x35_9398_MERIGNIES" class="st0" points="165.9,186.6 157,190.9 150.3,187.5 146.3,178.5 153.2,173.9 155.1,172.4 
			161.7,174.5 165.8,172 167.8,172.4 176.6,174.2 176.4,178.9 170.3,183.1 		"/>
		<polygon id="_x35_9408_MONCHEAUX" class="st0" points="142.4,226.3 136,224 135.4,215.5 142.4,214.4 146.1,208.3 159,210.4 
			151.3,215.7 153.2,220.1 146.9,221.7 		"/>
		<polygon id="_x35_9411_MONS-EN-PEVELE" class="st0" points="159,210.4 146.1,208.3 141.4,208.9 139.9,207 140.9,200.2 
			137.5,193.9 140.6,188.5 146.3,186.4 150.3,187.5 157,190.9 165.9,186.6 166.1,193.5 162.8,202.8 165.9,209.5 		"/>
		<polygon id="_x35_9419_MOUCHIN" class="st0" points="240.6,180.6 233.1,180.9 222.6,174.9 221.2,167.7 221.5,164.1 225,164.5 
			237.1,165.4 253,172.9 256.7,179.5 		"/>
		<polygon id="_x35_9427_LA_NEUVILLE" class="st0" points="125.7,195.1 122,187.9 125.3,177.7 127.8,177.8 131.8,183.6 136.4,184.7 
			137.3,193.9 		"/>
		<polygon id="_x35_9452_OSTRICOURT" class="st0" points="112.2,227.5 112.3,220.2 108.4,217.5 112.2,208.4 121.6,208.3 
			125.2,205.2 131.8,217.2 125.9,221.3 123.8,225.7 122.4,227.4 118.4,225.5 		"/>
		<polygon id="_x35_9462_PHALEMPIN" class="st0" points="109.6,192.5 108.5,190.7 110.8,183.7 109.2,181.9 109.2,174.5 104.8,168.6 
			104,164.7 108.1,165.1 111.3,161.9 122.8,172.1 125.3,177.7 122,187.9 116.6,184.2 		"/>
		<polygon id="_x35_9586_TEMPLEUVE" class="st0" points="197.8,182 190.5,172.5 180.8,171.7 176.6,174.2 167.8,172.4 170.9,158.4 
			178,157.2 176.5,145.3 181.6,142.3 185.5,143.5 192.9,151 197.7,155.9 197.2,164.8 200.1,173.4 198.1,174.8 		"/>
		<polygon id="_x35_9592_THUMERIES" class="st0" points="131.8,217.2 125.2,205.2 125.7,195.1 137.3,193.9 137.5,193.9 140.9,200.2 
			139.9,207 141.4,208.9 146.1,208.3 142.4,214.4 135.4,215.5 		"/>
		<polygon id="_x35_9630_WAHAGNIES" class="st0" points="112.2,208.4 112.7,205.1 116.1,199 109.6,192.5 116.6,184.2 122,187.9 
			125.7,195.1 125.2,205.2 121.6,208.3 		"/>
		<polygon id="_x35_9638_WANNEHAIN" class="st0" points="232.2,142.9 226.2,141.6 223.4,127.1 225.2,125.5 232.3,126 234.8,130 
			233.2,136.8 236.2,140.4 		"/>
	</g>
</g>
<polygon id="_x35_9005_ALLENNES-LES-MARAIS" class="st1" points="87.6,165.1 81.5,168.2 79.7,164 72.5,151 72.1,148.7 81.7,143.4 
	88.3,158.1 "/>
<polygon id="_x35_9009_VILLENEUVE-D_x27_ASCQ" class="st1" points="168.4,111.8 160.3,99.3 162.3,98.3 160.6,87.2 158.6,86.2 
	161.6,78.5 159.8,77.5 159.5,73.7 163.4,74.1 167.6,66.4 168.4,59.6 172.7,61.2 172.7,65.8 176.9,67.6 179.5,71.4 183,74.4 
	187.5,73.7 190.5,85.1 188.2,88.9 191.9,91.9 194.3,92 195.7,87.5 200,87.6 200.5,87.7 198.9,95.3 197.9,93 195.4,93.4 187.6,99.6 
	186.1,104.2 187.9,106 184.6,111.3 "/>
<polygon id="_x35_9011_ANNOEULLIN" class="st1" points="70.8,179.7 66,170.7 56.3,162.6 57.4,161.1 58.5,159.7 65.7,157.9 72.5,151 
	79.7,164 81.8,176.7 "/>
<polygon id="_x35_9013_ANSTAING" class="st1" points="193.4,117.6 191,113.7 184.6,111.3 187.9,106 195,104.4 198.2,111.4 "/>
<polygon id="_x35_9025_AUBERS" class="st1" points="15.9,128.1 7.1,125 8.4,122.7 16,107.1 25.3,99.1 26.6,98.2 27.7,104.7 
	34.3,117.8 30,122.8 24.1,125 "/>
<polygon id="_x35_9044_BAISIEUX" class="st1" points="213,116.3 209.6,118.4 207.1,114.5 205.6,112.5 208.5,108.5 208.1,103.7 
	203.4,97.9 198.8,96 211.1,97.3 224.2,92.2 223,96.8 229.2,104 229.9,108.7 222.6,109.2 "/>
<polygon id="_x35_9051_LA_BASSEE" class="st1" points="13.8,165.8 11.8,164.6 12.7,158 9.5,149.6 13.9,148.2 18.2,149.6 22.1,153.4 
	23.9,157.5 17.5,163.1 18.7,165 "/>
<polygon id="_x35_9052_BAUVIN" class="st1" points="60.6,182.9 59.1,184.7 54.6,183.7 52.4,179.7 50.1,179.8 52.4,161.4 57.4,161.1 
	56.3,162.6 61,176.2 59.3,180.8 "/>
<polygon id="_x35_9056_BEAUCAMPS-LIGNY" class="st1" points="67.9,120.3 63.7,112 57.3,109.2 55.1,105 54.3,101.3 67.7,100.1 
	69,100 70.6,106.9 73.7,110.7 76.1,110.1 75.2,112.8 71.9,113.9 72.9,115.4 "/>
<polygon id="_x35_9090_BONDUES" class="st1" points="143.6,52.8 138.8,49.2 138,32.7 135,26 139.5,24.7 143.9,19.1 148.5,19.4 
	151.7,22.9 156.1,23.8 159.8,20.8 165.9,24.1 166.3,28.8 160.4,34 158.3,32.6 154.1,38.5 153.5,43.2 147.3,46.5 "/>
<polygon id="_x35_9106_BOUVINES" class="st1" points="201.9,121.9 194.2,127.4 196.5,131.6 195.6,133.8 193.7,135.3 190.1,132.1 
	188.5,125.5 193.8,118.3 196.1,117.4 "/>
<polygon id="_x35_9128_CAPINGHEM" class="st1" points="90.9,84 84.6,81.9 82.7,77.7 90.4,71 92.7,79.8 "/>
<polygon id="_x35_9133_CARNIN" class="st1" points="88.3,176.1 87.5,178 81.8,176.7 79.7,164 81.5,168.2 87.6,165.1 93.7,167.2 "/>
<polygon id="_x35_9146_CHERENG" class="st1" points="207.1,114.5 198.2,111.4 195,104.4 196.6,95.3 198.9,95.3 198.8,96 203.4,97.9 
	208.1,103.7 208.5,108.5 205.6,112.5 "/>
<polygon id="_x35_9163_CROIX" class="st1" points="179.5,71.4 176.9,67.6 172.7,65.8 172.7,61.2 168.4,59.6 173.9,44.8 175.7,45.1 
	175.1,47.5 179.1,53.5 178.4,58.4 184.7,61.5 "/>
<polygon id="_x35_9193_EMMERIN" class="st1" points="110.3,126.2 109.3,128.4 99.7,125.8 100.9,121.3 98.2,117.4 98.8,115 
	107.4,110.8 109.8,111.4 117.5,118.4 "/>
<polygon id="_x35_9195_ENGLOS" class="st1" points="87.5,98 77.5,94.3 77.4,93.2 86.7,91.2 90.7,88.3 91.5,88.3 "/>
<polygon id="_x35_9196_ENNETIERES-EN-WEPPES" class="st1" points="68.8,94.2 63.1,86.2 54.6,80.8 56.4,76.5 57.9,78.4 62.8,77.8 
	71.9,69.9 82.7,77.7 84.6,81.9 90.9,84 90.7,88.3 86.7,91.2 77.4,93.2 "/>
<polygon id="_x35_9201_ERQUINGHEM-LE-SEC" class="st1" points="76.1,110.1 73.7,110.7 70.6,106.9 69,100 76.2,101.4 79.3,107.2 "/>
<polygon id="_x35_9208_ESCOBECQUES" class="st1" points="76.2,101.4 69,100 67.7,100.1 68.8,94.2 77.4,93.2 77.5,94.3 79.3,98.4 "/>
<polygon id="_x35_9220_FACHES-THUMESNIL" class="st1" points="145.9,127.5 137.7,126.5 134.9,123.4 133.4,114.8 129.9,112.2 
	134.5,104.8 137.6,107.9 144.7,121 "/>
<polygon id="_x35_9247_FOREST-SUR-MARQUE" class="st1" points="195.7,87.5 194.3,92 191.9,91.9 188.2,88.9 190.5,85.1 "/>
<polygon id="_x35_9250_FOURNES-EN-WEPPES" class="st1" points="51.2,130.3 46.6,127.6 45.9,116.5 49,110.4 55.1,105 57.3,109.2 
	63.7,112 67.9,120.3 60.7,125.4 60.5,127.7 "/>
<polygon id="_x35_9256_FRETIN" class="st1" points="176.5,145.3 170.3,149.5 155.5,149.1 154.1,147 149,134.7 148.6,133.8 
	155.3,131.8 166.1,123 167.1,125.1 175.7,128.4 180.3,133.6 181.6,142.3 "/>
<polygon id="_x35_9257_FROMELLES" class="st1" points="34.3,117.8 27.7,104.7 26.6,98.2 31.2,92.7 40.8,92.7 49,110.4 45.9,116.5 
	40.1,114.7 "/>
<polygon id="_x35_9275_GRUSON" class="st1" points="211.9,122.9 205.4,125 201.9,121.9 196.1,117.4 193.8,118.3 193.4,117.6 
	198.2,111.4 207.1,114.5 209.6,118.4 213,116.3 214.9,117.3 "/>
<polygon id="_x35_9278_HALLENNES-LEZ-HAUBOURDIN" class="st1" points="75.2,112.8 76.1,110.1 79.3,107.2 76.2,101.4 79.3,98.4 
	77.5,94.3 87.5,98 92.6,101.5 90.3,105 91,109.1 "/>
<polygon id="_x35_9281_HANTAY" class="st1" points="40.8,163.8 36.9,157 47.5,152.7 50.3,159.3 "/>
<polygon id="_x35_9286_HAUBOURDIN" class="st1" points="99.7,125.8 94.5,124.5 95.9,114.6 91,109.1 90.3,105 92.6,101.5 93.9,99.6 
	102.9,99.6 109.8,111.4 107.4,110.8 98.8,115 98.2,117.4 100.9,121.3 "/>
<polygon id="_x35_9299_HEM" class="st1" points="200,87.6 195.7,87.5 190.5,85.1 187.5,73.7 183,74.4 179.5,71.4 184.7,61.5 
	195.2,62.7 196.8,61 199.9,64.7 201.4,66.5 205.6,68.2 206.8,72.7 200.7,80.4 "/>
<polygon id="_x35_9303_HERLIES" class="st1" points="34.8,138.2 30.4,135.8 24.1,125 30,122.8 34.3,117.8 40.1,114.7 45.9,116.5 
	46.6,127.6 "/>
<polygon id="_x35_9316_HOUPLIN-ANCOISNE" class="st1" points="114.5,136.6 110.6,145.1 97.8,138.5 96.1,140.3 89.2,134.7 94,129.3 
	94.5,124.5 99.7,125.8 108.9,129.4 108.9,131.8 "/>
<polygon id="_x35_9320_ILLIES" class="st1" points="22.1,153.4 18.2,149.6 19.1,137.5 15.9,128.1 24.1,125 30.4,135.8 34.8,138.2 
	37.5,142.7 31.5,148.6 "/>
<polygon id="_x35_9328_LAMBERSART" class="st1" points="125.8,77.8 117.8,86.5 105.9,74.7 108.1,73.9 109.5,69.5 112.7,66.6 
	114.2,60.5 "/>
<polygon id="_x35_9332_LANNOY" class="st1" points="201.4,66.5 199.9,64.7 202.2,63.2 203.9,64.3 "/>
<polygon id="_x35_9339_LEERS" class="st1" points="216.6,64.3 213.4,61.2 203.7,50.5 204.3,47.8 221.9,46.5 225.7,57.5 217.4,62 "/>
<polygon id="_x35_9343_LESQUIN" class="st1" points="148.6,133.8 145.9,127.5 144.7,121 145.6,118.7 150.3,118.1 157.7,105.7 
	166.3,112.9 168.4,111.8 166.1,123 155.3,131.8 "/>
<polygon id="_x35_9346_LEZENNES" class="st1" points="168.4,111.8 166.3,112.9 157.7,105.7 151.6,104 149.4,100.3 160.3,99.3 "/>
<polygon id="_x35_9350_LILLE" class="st1" points="129.9,112.2 127.3,112.1 124.2,108.4 121.8,108.9 117.9,105.8 114.4,96.6 
	110.7,94.1 101.9,91.9 96.1,87.9 91.5,88.3 90.7,88.3 90.9,84 92.7,79.8 90.4,71 91.1,70.5 97.1,68.2 105.9,74.7 117.8,86.5 
	125.8,77.8 132.2,75.6 139.5,80.9 143.2,75.3 144.1,73.2 147.9,75.4 152.3,74.7 148.2,83.3 153.9,87.6 158.6,86.2 160.6,87.2 
	162.3,98.3 160.3,99.3 149.4,100.3 142.1,101.8 137.6,107.9 134.5,104.8 "/>
<polygon id="_x35_9356_LOMPRET" class="st1" points="105.9,74.7 97.1,68.2 95,61.2 101.9,59.5 109.5,69.5 108.1,73.9 "/>
<polygon id="_x35_9360_LOOS" class="st1" points="127.3,112.1 121.5,118.8 117.5,118.4 109.8,111.4 102.9,99.6 103.9,95.7 
	110.7,94.1 114.4,96.6 117.9,105.8 121.8,108.9 124.2,108.4 "/>
<polygon id="_x35_9367_LYS-LEZ-LANNOY" class="st1" points="205.6,68.2 201.4,66.5 203.9,64.3 202.2,63.2 199.9,64.7 196.8,61 
	202.7,54.6 203.7,50.5 213.4,61.2 "/>
<polygon id="_x35_9368_LA_MADELEINE" class="st1" points="143.2,75.3 139.5,80.9 132.2,75.6 130.9,73.4 133.1,66.2 136.5,64.4 "/>
<polygon id="_x35_9371_LE_MAISNIL" class="st1" points="49,110.4 40.8,92.7 44.4,90.1 46.9,88.4 50.5,98 54.3,101.3 55.1,105 "/>
<polygon id="_x35_9378_MARCQ-EN-BAROEUL" class="st1" points="159.8,77.5 152.3,74.7 147.9,75.4 144.1,73.2 143.2,75.3 136.5,64.4 
	143.6,52.8 147.3,46.5 153.5,43.2 154.1,38.5 158.3,32.6 160.4,34 161.7,40.6 165.4,46 157.2,50.3 159.1,57.2 157,64.3 159.5,73.7 
	"/>
<polygon id="_x35_9386_MARQUETTE-LEZ-LILLE" class="st1" points="133.1,66.2 130.9,62.4 122.9,66.4 115.4,60.7 125,59.3 138.8,49.2 
	143.6,52.8 136.5,64.4 "/>
<polygon id="_x35_9388_MARQUILLIES" class="st1" points="50.3,159.3 47.5,152.7 36.9,157 32.3,153 31.5,148.6 37.5,142.7 
	41.2,137.6 49.8,139.6 49.8,146.2 54.2,147.8 55.7,152.2 52.3,158 "/>
<polygon id="_x35_9410_MONS-EN-BAROEUL" class="st1" points="158.6,86.2 153.9,87.6 148.2,83.3 152.3,74.7 159.8,77.5 161.6,78.5 
	"/>
<polygon id="_x35_9421_MOUVAUX" class="st1" points="165.4,46 161.7,40.6 160.4,34 166.3,28.8 171,29.3 174.7,36 170.7,44.9 "/>
<polygon id="_x35_9437_NOYELLES-LES-SECLIN" class="st1" points="123,132.4 117.8,139.9 114.5,136.6 108.9,131.8 108.9,129.4 
	99.7,125.8 109.3,128.4 110.3,126.2 "/>
<polygon id="_x35_9457_PERENCHIES" class="st1" points="91.1,70.5 82.5,58.8 86,54.4 90.4,53.5 95,61.2 97.1,68.2 "/>
<polygon id="_x35_9458_PERONNE-EN-MELANTOIS" class="st1" points="185.5,143.5 181.6,142.3 180.3,133.6 188,136.7 187,140.4 "/>
<polygon id="_x35_9470_PREMESQUES" class="st1" points="82.7,77.7 71.9,69.9 70.2,66.7 73.2,63.1 79.9,62.7 82.5,58.8 91.1,70.5 
	90.4,71 "/>
<polygon id="_x35_9477_PROVIN" class="st1" points="63,185.5 60.6,182.9 59.3,180.8 61,176.2 56.3,162.6 66,170.7 70.8,179.7 "/>
<polygon id="_x35_9487_RADINGHEM-EN-WEPPES" class="st1" points="54.3,101.3 50.5,98 46.9,88.4 54.6,80.8 63.1,86.2 68.8,94.2 
	67.7,100.1 "/>
<polygon id="_x35_9507_RONCHIN" class="st1" points="144.7,121 137.6,107.9 142.1,101.8 149.4,100.3 151.6,104 157.7,105.7 
	150.3,118.1 145.6,118.7 "/>
<polygon id="_x35_9512_ROUBAIX" class="st1" points="196.8,61 195.2,62.7 184.7,61.5 178.4,58.4 179.1,53.5 175.1,47.5 175.7,45.1 
	179.4,36.5 185.8,34.3 193.3,35.1 198.1,43.8 204.3,47.8 203.7,50.5 202.7,54.6 "/>
<polygon id="_x35_9522_SAILLY-LEZ-LANNOY" class="st1" points="200.5,87.7 200,87.6 200.7,80.4 206.8,72.7 208.4,71.2 217.9,75.3 
	219.6,79 217.6,83 220.5,86.5 212.8,82.6 208.6,84.9 203.8,84.2 "/>
<polygon id="_x35_9523_SAINGHIN-EN-MELANTOIS" class="st1" points="188,136.7 180.3,133.6 175.7,128.4 167.1,125.1 166.1,123 
	168.4,111.8 184.6,111.3 191,113.7 193.4,117.6 193.8,118.3 188.5,125.5 190.1,132.1 "/>
<polygon id="_x35_9524_SAINGHIN-EN-WEPPES" class="st1" points="52.4,161.4 52.3,158 55.7,152.2 54.2,147.8 49.8,146.2 49.8,139.6 
	49.1,134.7 51.2,130.3 60.5,127.7 66.1,148.6 59.3,154.9 58.5,159.7 57.4,161.1 "/>
<polygon id="_x35_9527_SAINT-ANDRE-LEZ-LILLE" class="st1" points="125.8,77.8 114.2,60.5 115.2,60.6 115.4,60.7 122.9,66.4 
	130.9,62.4 133.1,66.2 130.9,73.4 132.2,75.6 "/>
<polygon id="_x35_9550_SALOME" class="st1" points="36.2,164.6 23.6,166.8 18.7,165 17.5,163.1 23.9,157.5 22.1,153.4 31.5,148.6 
	32.3,153 36.9,157 40.8,163.8 "/>
<polygon id="_x35_9553_SANTES" class="st1" points="89.2,134.7 84.8,126.2 72.9,115.4 71.9,113.9 75.2,112.8 91,109.1 95.9,114.6 
	94.5,124.5 94,129.3 "/>
<polygon id="_x35_9560_SECLIN" class="st1" points="122.8,172.1 111.3,161.9 108.2,155.1 107.3,150.2 96.1,140.3 97.8,138.5 
	110.6,145.1 114.5,136.6 117.8,139.9 123,132.4 124.3,133 123.5,135.2 130,141.8 136.5,144.4 133.8,162.8 127.4,164.7 "/>
<polygon id="_x35_9566_SEQUEDIN" class="st1" points="92.6,101.5 87.5,98 91.5,88.3 96.1,87.9 101.9,91.9 110.7,94.1 103.9,95.7 
	102.9,99.6 93.9,99.6 "/>
<polygon id="_x35_9585_TEMPLEMARS" class="st1" points="136.5,144.4 130,141.8 123.5,135.2 124.3,133 128.7,125.7 134.9,123.4 
	137.7,126.5 135.6,133.3 140,138.7 "/>
<polygon id="_x35_9598_TOUFFLERS" class="st1" points="217.9,75.3 208.4,71.2 206.8,72.7 205.6,68.2 213.4,61.2 216.6,64.3 "/>
<polygon id="_x35_9599_TOURCOING" class="st1" points="175.7,45.1 173.9,44.8 170.7,44.9 174.7,36 171,29.3 166.3,28.8 165.9,24.1 
	159.8,20.8 160.1,18.4 168.8,10.4 178.6,10 189.8,4.4 191.6,10.8 195.4,13.1 185.2,29.8 185.8,34.3 179.4,36.5 "/>
<polygon id="_x35_9602_TRESSIN" class="st1" points="187.9,106 186.1,104.2 187.6,99.6 195.4,93.4 197.9,93 198.9,95.3 196.6,95.3 
	195,104.4 "/>
<polygon id="_x35_9609_VENDEVILLE" class="st1" points="140,138.7 135.6,133.3 137.7,126.5 145.9,127.5 148.6,133.8 149,134.7 "/>
<polygon id="_x35_9611_VERLINGHEM" class="st1" points="109.5,69.5 101.9,59.5 95,61.2 90.4,53.5 96.2,44.6 103.3,43.2 111.4,37.7 
	112.9,39.7 115.2,60.6 114.2,60.5 112.7,66.6 "/>
<polygon id="_x35_9636_WAMBRECHIES" class="st1" points="115.4,60.7 115.2,60.6 112.9,39.7 125.7,32.5 127,23.2 131.1,22.1 135,26 
	138,32.7 138.8,49.2 125,59.3 "/>
<polygon id="_x35_9646_WASQUEHAL" class="st1" points="168.4,59.6 167.6,66.4 163.4,74.1 159.5,73.7 157,64.3 159.1,57.2 
	157.2,50.3 165.4,46 170.7,44.9 173.9,44.8 "/>
<polygon id="_x35_9648_WATTIGNIES" class="st1" points="124.3,133 123,132.4 110.3,126.2 117.5,118.4 121.5,118.8 127.3,112.1 
	129.9,112.2 133.4,114.8 134.9,123.4 128.7,125.7 "/>
<polygon id="_x35_9650_WATTRELOS" class="st1" points="204.3,47.8 198.1,43.8 193.3,35.1 185.8,34.3 185.2,29.8 195.4,13.1 
	196.6,15.3 193.5,22 202.1,30.8 219.2,32.7 224.8,41 224.4,46 221.9,46.5 "/>
<polygon id="_x35_9653_WAVRIN" class="st1" points="72.1,148.7 70.5,146.9 66.1,148.6 60.5,127.7 60.7,125.4 67.9,120.3 72.9,115.4 
	84.8,126.2 89.2,134.7 83.9,140.8 81.7,143.4 "/>
<polygon id="_x35_9658_WICRES" class="st1" points="37.5,142.7 34.8,138.2 46.6,127.6 51.2,130.3 49.1,134.7 49.8,139.6 41.2,137.6 
	"/>
<polygon id="_x35_9660_WILLEMS" class="st1" points="224.2,92.2 211.1,97.3 198.8,96 198.9,95.3 200.5,87.7 203.8,84.2 208.6,84.9 
	212.8,82.6 220.5,86.5 "/>
<polygon id="_x35_9670_DON" class="st1" points="58.5,159.7 59.3,154.9 66.1,148.6 70.5,146.9 72.1,148.7 72.5,151 65.7,157.9 "/>
<path class="st2" d="M134.1,153.8h-24.6c-0.7,0-1.3-0.6-1.3-1.3v-5.2c0-0.7,0.6-1.3,1.3-1.3h24.6c0.7,0,1.3,0.6,1.3,1.3v5.2
	C135.4,153.3,134.8,153.8,134.1,153.8z"/>
<path class="st2" d="M142.7,92.9h-17.3c-0.7,0-1.3-0.6-1.3-1.3V87c0-0.7,0.6-1.3,1.3-1.3h17.3c0.7,0,1.3,0.6,1.3,1.3v4.6
	C144,92.4,143.4,92.9,142.7,92.9z"/>
<text transform="matrix(1 0 0 1 110.7412 152.2693)" class="st3 st4">SECLIN</text>
<text transform="matrix(1 0 0 1 125.9957 91.6926)" class="st3 st4">LILLE</text>
<path class="st2" d="M203.5,51.5h-27.6c-0.7,0-1.3-0.6-1.3-1.3v-4.7c0-0.7,0.6-1.3,1.3-1.3h27.6c0.7,0,1.3,0.6,1.3,1.3v4.7
	C204.8,51,204.2,51.5,203.5,51.5z"/>
<text transform="matrix(1 0 0 1 175.8404 50.1602)" class="st3 st4">ROUBAIX</text>
<path class="st2" d="M194.7,24.3h-36.1c-0.7,0-1.3-0.6-1.3-1.3v-5.1c0-0.7,0.6-1.3,1.3-1.3h36.1c0.7,0,1.3,0.6,1.3,1.3V23
	C196,23.8,195.4,24.3,194.7,24.3z"/>
<text transform="matrix(1 0 0 1 158.6718 22.804)" class="st3 st4">TOURCOING</text>
<path class="st2" d="M189.6,96.4H165c-0.7,0-1.3-0.4-1.3-0.9v-4.7h27c0.1,0,0.1,0.1,0.1,0.1v4.6C190.9,95.9,190.3,96.4,189.6,96.4z"
	/>
<path class="st2" d="M195.7,91.3h-37.2c-0.7,0-1.3-0.6-1.3-1.3v-5.2c0-0.7,0.6-1.3,1.3-1.3h37.2c0.7,0,1.3,0.6,1.3,1.3V90
	C197,90.7,196.4,91.3,195.7,91.3z"/>
<text transform="matrix(1 0 0 1 158.16 89.5844)" class="st3 st4">VILLENEUVE </text>
<text transform="matrix(1 0 0 1 165.8878 95.2696)" class="st3 st4">D’ASCQ</text>
<path class="st2" d="M87.4,136.5H62.8c-0.7,0-1.3-0.6-1.3-1.3V130c0-0.7,0.6-1.3,1.3-1.3h24.6c0.7,0,1.3,0.6,1.3,1.3v5.2
	C88.7,136,88.1,136.5,87.4,136.5z"/>
<text transform="matrix(1 0 0 1 63.0833 134.8185)" class="st3 st4">WAVRIN</text>
<g>
	<polygon id="_x35_9004_AIX" class="st0" points="243.5,194.9 231.7,193 240.4,180.9 256.5,179.7 259.2,179.9 257.4,186.1 	"/>
	<polygon id="_x35_9029_AUCHY-LEZ-ORCHIES" class="st0" points="201.6,205.8 190.1,208.4 185.4,206.6 182.5,203.2 184.9,196 
		193,188.3 197.1,194.4 211.5,196.4 	"/>
	<polygon id="_x35_9080_BEUVRY-LA-FORET" class="st0" points="246.3,233.3 242,231.5 223.3,231.1 221.2,224.6 217.6,221.6 
		219.4,217.2 226.1,215.3 229.2,211.6 238.3,209.5 248,217.3 252.5,225.8 247.9,225.6 248.5,232.6 	"/>
	<polygon id="_x35_9158_COUTICHES" class="st0" points="203.6,239.3 198.7,238 194.5,231.7 187.5,228.6 175.5,232.2 175.3,225.1 
		181.7,215.1 185.4,206.6 190.1,208.4 201.6,205.8 203.1,213.1 209.6,220.3 207.2,227.1 208.5,234 	"/>
	<polygon id="_x35_9222_FAUMONT" class="st0" points="172.2,231.6 170.6,233.3 166.1,232.2 166.7,227.5 161.9,226.8 159.8,222.5 
		153,220.3 151.2,215.9 158.9,210.7 165.7,209.8 181.7,215.1 175.3,225.1 175.5,232.2 	"/>
	<polygon id="_x35_9330_LANDAS" class="st0" points="257.9,218.9 251.6,219.6 248,217.3 238.3,209.5 229.2,211.6 224.9,206.1 
		225,199 222.9,197.6 231.7,193 243.5,194.9 257.9,211 258.5,217.6 	"/>
	<polygon id="_x35_9435_NOMAIN" class="st0" points="222.9,197.6 211.5,196.4 197.1,194.4 193,188.3 197.8,184.4 197.6,182.3 
		197.9,175.1 199.9,173.7 204.1,174.7 221.1,168 222.4,175.1 233,181.1 240.4,180.9 231.7,193 	"/>
	<polygon id="_x35_9449_ORCHIES" class="st0" points="217.6,221.6 209.6,220.3 203.1,213.1 201.6,205.8 211.5,196.4 222.9,197.6 
		225,199 224.9,206.1 229.2,211.6 226.1,215.3 219.4,217.2 	"/>
	<polygon id="_x35_9489_RAIMBEAUCOURT" class="st0" points="163.8,240.1 151.4,239 142.1,242.4 138.4,240 136.1,239.7 139,230.2 
		142.3,226.5 146.8,221.9 153,220.3 159.8,222.5 161.9,226.8 166.7,227.5 166.1,232.2 166.9,236.8 	"/>
	<polygon id="_x35_9519_RUMEGIES" class="st0" points="268.7,202.3 266.3,203.1 261.2,197.8 257.4,186.1 259.2,179.9 271,183 
		278.9,192.2 280.9,193.4 280,195.6 275.4,196.4 	"/>
	<polygon id="_x35_9551_SAMEON" class="st0" points="258.5,217.6 257.9,211 243.5,194.9 257.4,186.1 261.2,197.8 266.3,203.1 
		268.7,202.3 270.6,205.8 270.4,210.6 267.4,214.4 	"/>
</g>
<g>
	<path class="st2" d="M227.5,212.9h-26.4c-0.7,0-1.3-0.6-1.3-1.3v-5.2c0-0.7,0.6-1.3,1.3-1.3h26.4c0.7,0,1.3,0.6,1.3,1.3v5.2
		C228.9,212.3,228.2,212.9,227.5,212.9z"/>
	<text transform="matrix(1 0 0 1 200.8242 211.0152)" class="st3 st4">ORCHIES</text>
</g>
<polygon id="_x35_9028_AUBY" class="st0" points="147,255.7 144.7,256.8 135.2,253.5 125,253.3 118.2,250.1 122.6,241.6 
	136.3,239.9 138.6,240.2 136.5,241.3 144.1,246.8 "/>
<polygon id="_x35_9080_BEUVRY-LA-FORET_00000119104215439084680990000004302463069511767696_" class="st0" points="246.4,233.5 
	242.1,231.7 223.5,231.3 221.3,224.8 217.8,221.8 219.6,217.4 226.3,215.5 229.3,211.8 238.4,209.7 248.1,217.5 252.7,226 
	248.1,225.8 248.6,232.8 "/>
<polygon id="_x35_9100_BOUSIGNIES" class="st0" points="266.9,243.5 262.1,240 263.5,233.1 269.2,229.3 272.4,232 277.1,237.1 "/>
<polygon id="_x35_9105_BOUVIGNIES" class="st0" points="206.5,248.1 203.7,239.5 208.6,234.1 207.4,227.3 209.7,220.5 217.8,221.8 
	221.3,224.8 223.5,231.3 220.9,235.4 224.1,241.4 213.7,246.9 "/>
<polygon id="_x35_9109_BRILLON" class="st0" points="262.1,240 255.8,239.9 253.5,231.7 254.6,229.5 265.8,228.8 269.2,229.3 
	263.5,233.1 "/>
<polygon id="_x35_9234_FLERS-EN-ESCREBIEUX" class="st0" points="131.3,263.3 113,258.6 105.8,260 102.5,258.5 111.3,256 
	118.2,250.1 125,253.3 135.2,253.5 144.7,256.8 147,255.7 152.6,259.7 "/>
<polygon id="_x35_9239_FLINES-LEZ-RACHES" class="st0" points="192.1,265.9 181,262.1 177.9,251.4 174.2,249 174.8,238.9 
	172.4,231.8 175.6,232.4 187.6,228.8 194.7,231.8 198.8,238.2 203.7,239.5 206.5,248.1 202.6,251.1 203.2,253.5 196.2,263.4 "/>
<polygon id="_x35_9335_LECELLES" class="st0" points="280.6,219 274.8,206.3 270.7,206 268.8,202.5 275.6,196.6 280.2,195.7 
	281,193.6 279,192.4 285,188.2 292.1,186.7 294.7,190.5 291.8,194.5 292.8,196.7 299.9,198.3 304.5,196.6 304,200.7 305.9,201.6 
	306.1,213.3 299.4,216.7 284.7,216.3 "/>
<polygon id="_x35_9375_MARCHIENNES" class="st0" points="197.2,267.4 192.1,265.9 196.2,263.4 203.2,253.5 202.6,251.1 206.5,248.1 
	213.7,246.9 224.1,241.4 220.9,235.4 223.5,231.3 242.1,231.7 246.4,233.5 245.2,243.2 247.2,247.8 243.1,257 239.4,258.7 
	240,260.6 235,260.5 231.9,256.5 224.9,259 221.4,262.5 213.7,256.9 211.3,257.2 202.1,260.7 202.4,265.5 "/>
<polygon id="_x35_9393_MAULDE" class="st0" points="304.5,196.6 299.9,198.3 292.8,196.7 291.8,194.5 294.7,190.5 292.1,186.7 
	306,179.2 307.8,180.6 310.3,184.4 309.5,188.8 "/>
<polygon id="_x35_9403_MILLONFOSSE" class="st0" points="292.1,237.9 279.7,239.7 269.8,247.4 267.4,246.5 266.9,243.5 277.1,237.1 
	272.4,232 283.1,229.4 "/>
<polygon id="_x35_9418_MORTAGNE-DU-NORD" class="st0" points="313.9,192.2 309.5,188.8 310.3,184.4 307.8,180.6 312.7,180.6 
	317.4,181.3 320.7,187.1 "/>
<polygon id="_x35_9434_NIVELLE" class="st0" points="333.9,215.5 324,215.7 317.6,212.1 313.4,214.3 306.1,213.3 305.9,201.6 
	319.3,202.2 319.7,204.4 325.8,206.1 "/>
<polygon id="_x35_9486_RACHES" class="st0" points="160.8,255.2 157.9,249 163.6,245 163.9,240.3 167,237 166.2,232.3 170.8,233.5 
	172.4,231.8 174.8,238.9 174.2,249 170.2,251.1 165.8,250.9 "/>
<polygon id="_x35_9509_ROOST-WARENDIN" class="st0" points="152.6,259.7 147,255.7 144.1,246.8 136.5,241.3 138.6,240.2 
	142.2,242.5 151.5,239.2 163.9,240.3 163.6,245 157.9,249 160.8,255.2 "/>
<polygon id="_x35_9511_ROSULT" class="st0" points="272.4,232 269.2,229.3 265.8,228.8 264.4,224.7 258,219.1 258.6,217.8 
	267.6,214.6 270.6,210.8 270.7,206 274.8,206.3 280.6,219 283.1,229.4 "/>
<polygon id="_x35_9526_SAINT-AMAND-LES-EAUX" class="st0" points="303.1,249.9 294.5,238 292.1,237.9 283.1,229.4 280.6,219 
	284.7,216.3 299.4,216.7 306.1,213.3 313.4,214.3 317.6,212.1 324,215.7 333.9,215.5 339.7,222.3 320.5,249 "/>
<polygon id="_x35_9554_SARS-ET-ROSIERES" class="st0" points="253.5,231.7 252.7,226 248.1,217.5 251.8,219.7 258,219.1 
	264.4,224.7 265.8,228.8 254.6,229.5 "/>
<polygon id="_x35_9594_THUN-SAINT-AMAND" class="st0" points="319.3,202.2 305.9,201.6 304,200.7 304.5,196.6 309.5,188.8 
	313.9,192.2 319.9,195.3 "/>
<polygon id="_x35_9596_TILLOY-LEZ-MARCHIENNES" class="st0" points="247.2,247.8 245.2,243.2 246.4,233.5 248.6,232.8 248.1,225.8 
	252.7,226 253.5,231.7 255.8,239.9 262.1,240 266.9,243.5 267.4,246.5 263.7,247.8 "/>
<path class="st2" d="M331.2,227.5h-39.8c-1.1,0-2-0.5-2-1.1v-4.6c0-0.6,0.9-1.1,2-1.1h39.8c1.1,0,2,0.5,2,1.1v4.6
	C333.2,227,332.2,227.5,331.2,227.5z"/>
<path class="st2" d="M326.2,232.7h-28.9c-0.8,0-1.4-0.5-1.4-1.1V227c0-0.6,0.7-1.1,1.4-1.1h28.9c0.8,0,1.4,0.5,1.4,1.1v4.6
	C327.6,232.2,327,232.7,326.2,232.7z"/>
<text transform="matrix(1 0 0 1 290.3315 226.2498)" class="st5"><tspan x="0" y="0" class="st3 st4">SAINT-AMAND</tspan><tspan x="6" y="5" class="st3 st4">LES-EAUX</tspan></text>
<g>
	<path class="st2" d="M239.3,139.2h-45.1c-1.3,0-2.4-0.6-2.4-1.3v-5.2c0-0.7,1.1-1.3,2.4-1.3h45.1c1.3,0,2.4,0.6,2.4,1.3v5.2
		C241.7,138.7,240.6,139.2,239.3,139.2z"/>
	<text transform="matrix(1 0 0 1 194.2999 137.6693)" class="st3 st4">BOURGHELLES</text>
</g>
</svg>
