<?xml version="1.0" encoding="utf-8"?>
<!-- Generator: Adobe Illustrator 27.5.0, SVG Export Plug-In . SVG Version: 6.00 Build 0)  -->
<svg version="1.1"
	 id="svg2" xmlns:cc="http://creativecommons.org/ns#" xmlns:svg="http://www.w3.org/2000/svg" xmlns:sodipodi="http://sodipodi.sourceforge.net/DTD/sodipodi-0.dtd" xmlns:dc="http://purl.org/dc/elements/1.1/" xmlns:inkscape="http://www.inkscape.org/namespaces/inkscape" xmlns:rdf="http://www.w3.org/1999/02/22-rdf-syntax-ns#"
	 xmlns="http://www.w3.org/2000/svg" xmlns:xlink="http://www.w3.org/1999/xlink" x="0px" y="0px" viewBox="0 0 262.4 265.6"
	 style="enable-background:new 0 0 262.4 265.6;" xml:space="preserve">
<style type="text/css">
	.st0{fill:#74C3B0;stroke:#006991;}
	.st1{fill:#E4BFFF;stroke:#006991;}
	.st2{fill:#FFFFFF;}
	.st3{font-family:'Arial-BoldMT';}
	.st4{font-size:6px;}
</style>
<sodipodi:namedview  bordercolor="#666666" borderopacity="1" gridtolerance="10" guidetolerance="10" id="namedview660" inkscape:current-layer="g8" inkscape:cx="346.63962" inkscape:cy="668.3158" inkscape:pageopacity="0" inkscape:pageshadow="2" inkscape:window-height="1058" inkscape:window-maximized="1" inkscape:window-width="1920" inkscape:window-x="1912" inkscape:window-y="-8" inkscape:zoom="3.2841761" objecttolerance="10" pagecolor="#ffffff" showgrid="false">
	</sodipodi:namedview>
<g>
	<polygon id="_x35_9150_COBRIEUX" class="st0" points="225,197.6 221.5,197.2 209.1,190.1 206.3,186.4 209.3,183 213.8,183.4 
		217.5,188.7 221.8,188 	"/>
	<polygon id="_x35_9466_PONT-A-MARCQ" class="st0" points="165.8,205.1 161.7,207.6 155.1,205.5 153.2,207 151.3,203.1 154.4,197.5 
		161.1,200 	"/>
	<polygon id="_x35_9600_TOURMIGNIES" class="st0" points="140.6,221.6 139.7,212.1 142.4,207.9 146.3,211.6 150.3,220.6 
		146.3,219.5 	"/>
	<g>
		<polygon id="_x35_9022_ATTICHES" class="st0" points="137.5,227 137.3,227 136.4,217.8 131.8,216.7 127.8,210.9 125.3,210.8 
			122.8,205.2 127.4,197.8 133.8,195.9 135.1,200.1 140.7,203.8 142.4,207.9 139.7,212.1 140.6,221.6 		"/>
		<polygon id="_x35_9034_AVELIN" class="st0" points="146.3,211.6 142.4,207.9 140.7,203.8 135.1,200.1 133.8,195.9 136.5,177.5 
			140,171.8 149,167.8 154.1,180.1 151.8,181.2 151,191.1 154.4,197.5 151.3,203.1 153.2,207 		"/>
		<polygon id="_x35_9042_BACHY" class="st0" points="237.1,198.5 225,197.6 221.8,188 224,187.3 221.9,176.1 226.2,174.7 232.2,176 
			234.8,180.1 234,189.5 		"/>
		<polygon id="_x35_9071_BERSEE" class="st0" points="181.8,248 165.9,242.6 162.8,235.9 166.1,226.6 165.9,219.7 170.3,216.2 
			181.2,222.5 185,228.8 182.7,236.1 185.6,239.5 		"/>
		<polygon id="_x35_9096_BOURGHELLES" class="st0" points="221.8,188 217.5,188.7 213.8,183.4 215.3,178.6 212.3,156.5 223.4,160.2 
			226.2,174.7 221.9,176.1 224,187.3 		"/>
		<polygon id="_x35_9123_CAMPHIN-EN-CAREMBAULT" class="st0" points="108.5,223.8 101.9,220.9 88.3,209.2 93.7,200.3 104.8,201.7 
			109.2,207.6 109.2,215 110.8,216.8 		"/>
		<polygon id="_x35_9124_CAMPHIN-EN-PEVELE" class="st0" points="223.4,160.2 212.3,156.5 211.9,156 214.9,150.4 213,149.4 
			222.6,142.3 229.9,141.8 233.3,150 232.3,159.1 225.2,158.6 		"/>
		<polygon id="_x35_9129_CAPPELLE-EN-PEVELE" class="st0" points="185,228.8 181.2,222.5 170.3,216.2 176.4,212 176.6,207.3 
			180.8,204.8 190.5,205.6 197.8,215.1 198,217.2 193.1,221.2 		"/>
		<polygon id="_x35_9145_CHEMY" class="st0" points="104.8,201.7 93.7,200.3 95.4,193.3 108.2,188.2 111.3,195 108.1,198.2 
			104,197.8 		"/>
		<polygon id="_x35_9168_CYSOING" class="st0" points="206.3,186.4 204,189.7 197.7,189 192.9,184.1 197.7,179.5 197.6,174.8 
			193.9,172 187,173.5 188,169.8 190.1,165.2 193.7,168.4 195.6,166.9 196.5,164.7 194.2,160.5 201.9,155 205.4,158.1 211.9,156 
			212.3,156.5 215.3,178.6 213.8,183.4 209.3,183 		"/>
		<polygon id="_x35_9197_ENNEVELIN" class="st0" points="167.8,205.5 165.8,205.1 161.1,200 154.4,197.5 151,191.1 151.8,181.2 
			154.1,180.1 155.5,182.2 170.3,182.6 176.5,178.4 178,190.3 170.9,191.5 		"/>
		<polygon id="_x35_9258_GENECH" class="st0" points="221.2,200.8 204.2,207.5 200.1,206.5 197.2,197.9 197.7,189 204,189.7 
			206.3,186.4 209.1,190.1 221.5,197.2 		"/>
		<polygon id="_x35_9266_GONDECOURT" class="st0" points="93.7,200.3 87.6,198.2 88.3,191.2 92.2,188.2 91.9,185.8 89.2,179 
			83.9,173.9 89.2,167.8 96.1,173.4 107.3,183.3 108.2,188.2 95.4,193.3 		"/>
		<polygon id="_x35_9304_HERRIN" class="st0" points="88.3,191.2 81.7,176.5 83.9,173.9 89.2,179 91.9,185.8 92.2,188.2 		"/>
		<polygon id="_x35_9364_LOUVIL" class="st0" points="192.9,184.1 185.5,176.6 187,173.5 193.9,172 197.6,174.8 197.7,179.5 		"/>
		<polygon id="_x35_9398_MERIGNIES" class="st0" points="165.9,219.7 157,224 150.3,220.6 146.3,211.6 153.2,207 155.1,205.5 
			161.7,207.6 165.8,205.1 167.8,205.5 176.6,207.3 176.4,212 170.3,216.2 		"/>
		<polygon id="_x35_9408_MONCHEAUX" class="st0" points="142.4,259.4 136,257.1 135.4,248.6 142.4,247.5 146.1,241.4 159,243.5 
			151.3,248.8 153.2,253.2 146.9,254.8 		"/>
		<polygon id="_x35_9411_MONS-EN-PEVELE" class="st0" points="159,243.5 146.1,241.4 141.4,242 139.9,240.1 140.9,233.3 137.5,227 
			140.6,221.6 146.3,219.5 150.3,220.6 157,224 165.9,219.7 166.1,226.6 162.8,235.9 165.9,242.6 		"/>
		<polygon id="_x35_9419_MOUCHIN" class="st0" points="240.6,213.7 233.1,214 222.6,208 221.2,200.8 221.5,197.2 225,197.6 
			237.1,198.5 253,206 256.7,212.6 		"/>
		<polygon id="_x35_9427_LA_NEUVILLE" class="st0" points="125.7,228.2 122,221 125.3,210.8 127.8,210.9 131.8,216.7 136.4,217.8 
			137.3,227 		"/>
		<polygon id="_x35_9452_OSTRICOURT" class="st0" points="112.2,260.6 112.3,253.3 108.4,250.6 112.2,241.5 121.6,241.4 
			125.2,238.3 131.8,250.3 125.9,254.4 123.8,258.8 122.4,260.5 118.4,258.6 		"/>
		<polygon id="_x35_9462_PHALEMPIN" class="st0" points="109.6,225.6 108.5,223.8 110.8,216.8 109.2,215 109.2,207.6 104.8,201.7 
			104,197.8 108.1,198.2 111.3,195 122.8,205.2 125.3,210.8 122,221 116.6,217.3 		"/>
		<polygon id="_x35_9586_TEMPLEUVE" class="st0" points="197.8,215.1 190.5,205.6 180.8,204.8 176.6,207.3 167.8,205.5 170.9,191.5 
			178,190.3 176.5,178.4 181.6,175.4 185.5,176.6 192.9,184.1 197.7,189 197.2,197.9 200.1,206.5 198.1,207.9 		"/>
		<polygon id="_x35_9592_THUMERIES" class="st0" points="131.8,250.3 125.2,238.3 125.7,228.2 137.3,227 137.5,227 140.9,233.3 
			139.9,240.1 141.4,242 146.1,241.4 142.4,247.5 135.4,248.6 		"/>
		<polygon id="_x35_9630_WAHAGNIES" class="st0" points="112.2,241.5 112.7,238.2 116.1,232.1 109.6,225.6 116.6,217.3 122,221 
			125.7,228.2 125.2,238.3 121.6,241.4 		"/>
		<polygon id="_x35_9638_WANNEHAIN" class="st0" points="232.2,176 226.2,174.7 223.4,160.2 225.2,158.6 232.3,159.1 234.8,163.1 
			233.2,169.9 236.2,173.5 		"/>
	</g>
</g>
<g>
	<polygon id="_x35_9005_ALLENNES-LES-MARAIS" class="st1" points="87.6,198.2 81.5,201.3 79.7,197.1 72.5,184.1 72.1,181.8 
		81.7,176.5 88.3,191.2 	"/>
	<polygon id="_x35_9009_VILLENEUVE-D_x27_ASCQ" class="st1" points="168.4,144.9 160.3,132.4 162.3,131.4 160.6,120.3 158.6,119.3 
		161.6,111.6 159.8,110.6 159.5,106.8 163.4,107.2 167.6,99.5 168.4,92.7 172.7,94.3 172.7,98.9 176.9,100.7 179.5,104.5 183,107.5 
		187.5,106.8 190.5,118.2 188.2,122 191.9,125 194.3,125.1 195.7,120.6 200,120.7 200.5,120.8 198.9,128.4 197.9,126.1 195.4,126.5 
		187.6,132.7 186.1,137.3 187.9,139.1 184.6,144.4 	"/>
	<polygon id="_x35_9011_ANNOEULLIN" class="st1" points="70.8,212.8 66,203.8 56.3,195.7 57.4,194.2 58.5,192.8 65.7,191 
		72.5,184.1 79.7,197.1 81.8,209.8 	"/>
	<polygon id="_x35_9013_ANSTAING" class="st1" points="193.4,150.7 191,146.8 184.6,144.4 187.9,139.1 195,137.5 198.2,144.5 	"/>
	<polygon id="_x35_9017_ARMENTIERES" class="st1" points="57.1,87.3 55,88.7 45.1,86.7 38.1,83.3 44.6,71 51.1,68.9 58.5,78 
		55.8,81.3 	"/>
	<polygon id="_x35_9025_AUBERS" class="st1" points="15.9,161.2 7.1,158.1 8.4,155.8 16,140.2 25.3,132.2 26.6,131.3 27.7,137.8 
		34.3,150.9 30,155.9 24.1,158.1 	"/>
	<polygon id="_x35_9044_BAISIEUX" class="st1" points="213,149.4 209.6,151.5 207.1,147.6 205.6,145.6 208.5,141.6 208.1,136.8 
		203.4,131 198.8,129.1 211.1,130.4 224.2,125.3 223,129.9 229.2,137.1 229.9,141.8 222.6,142.3 	"/>
	<polygon id="_x35_9051_LA_BASSEE" class="st1" points="13.8,198.9 11.8,197.7 12.7,191.1 9.5,182.7 13.9,181.3 18.2,182.7 
		22.1,186.5 23.9,190.6 17.5,196.2 18.7,198.1 	"/>
	<polygon id="_x35_9052_BAUVIN" class="st1" points="60.6,216 59.1,217.8 54.6,216.8 52.4,212.8 50.1,212.9 52.4,194.5 57.4,194.2 
		56.3,195.7 61,209.3 59.3,213.9 	"/>
	<polygon id="_x35_9056_BEAUCAMPS-LIGNY" class="st1" points="67.9,153.4 63.7,145.1 57.3,142.3 55.1,138.1 54.3,134.4 67.7,133.2 
		69,133.1 70.6,140 73.7,143.8 76.1,143.2 75.2,145.9 71.9,147 72.9,148.5 	"/>
	<polygon id="_x35_9088_BOIS-GRENIER" class="st1" points="44.4,123.2 33.1,107.8 42.7,101.3 47.4,100.5 56.2,104.8 56.4,109.6 
		54.6,113.9 46.9,121.5 	"/>
	<polygon id="_x35_9090_BONDUES" class="st1" points="143.6,85.9 138.8,82.3 138,65.8 135,59.1 139.5,57.8 143.9,52.2 148.5,52.5 
		151.7,56 156.1,56.9 159.8,53.9 165.9,57.2 166.3,61.9 160.4,67.1 158.3,65.7 154.1,71.6 153.5,76.3 147.3,79.6 	"/>
	<polygon id="_x35_9098_BOUSBECQUE" class="st1" points="133.9,38 131.1,33.9 132.8,26.7 131.8,14.5 141.9,20.2 146.3,19.1 
		150.9,28.3 144.8,33.1 	"/>
	<polygon id="_x35_9106_BOUVINES" class="st1" points="201.9,155 194.2,160.5 196.5,164.7 195.6,166.9 193.7,168.4 190.1,165.2 
		188.5,158.6 193.8,151.4 196.1,150.5 	"/>
	<polygon id="_x35_9128_CAPINGHEM" class="st1" points="90.9,117.1 84.6,115 82.7,110.8 90.4,104.1 92.7,112.9 	"/>
	<polygon id="_x35_9133_CARNIN" class="st1" points="88.3,209.2 87.5,211.1 81.8,209.8 79.7,197.1 81.5,201.3 87.6,198.2 
		93.7,200.3 	"/>
	<polygon id="_x35_9143_LA_CHAPELLE-D_x27_ARMENTIERES" class="st1" points="71.9,103 62.8,110.9 57.9,111.5 56.4,109.6 56.2,104.8 
		47.4,100.5 42.7,101.3 40.2,94.7 45.1,86.7 55,88.7 57.1,87.3 65.4,92.1 70.2,99.8 	"/>
	<polygon id="_x35_9146_CHERENG" class="st1" points="207.1,147.6 198.2,144.5 195,137.5 196.6,128.4 198.9,128.4 198.8,129.1 
		203.4,131 208.1,136.8 208.5,141.6 205.6,145.6 	"/>
	<polygon id="_x35_9152_COMINES" class="st1" points="120.8,50 113.2,53.7 109.9,50.3 108.1,51.9 100.8,46 96.1,40.3 98,33.7 
		96.9,31.6 109.2,23.7 111.6,19.6 120.9,22.2 127,37.5 126.7,44.4 122.6,46.1 	"/>
	<polygon id="_x35_9163_CROIX" class="st1" points="179.5,104.5 176.9,100.7 172.7,98.9 172.7,94.3 168.4,92.7 173.9,77.9 
		175.7,78.2 175.1,80.6 179.1,86.6 178.4,91.5 184.7,94.6 	"/>
	<polygon id="_x35_9173_DEULEMONT" class="st1" points="89.2,65.7 83.1,62.7 80.5,56.4 75.5,51.3 78.5,48.6 75.8,42.2 76.9,40.2 
		82.6,44.7 100.8,46 108.1,51.9 98,62.4 89,58.8 	"/>
	<polygon id="_x35_9193_EMMERIN" class="st1" points="110.3,159.3 109.3,161.5 99.7,158.9 100.9,154.4 98.2,150.5 98.8,148.1 
		107.4,143.9 109.8,144.5 117.5,151.5 	"/>
	<polygon id="_x35_9195_ENGLOS" class="st1" points="87.5,131.1 77.5,127.4 77.4,126.3 86.7,124.3 90.7,121.4 91.5,121.4 	"/>
	<polygon id="_x35_9196_ENNETIERES-EN-WEPPES" class="st1" points="68.8,127.3 63.1,119.3 54.6,113.9 56.4,109.6 57.9,111.5 
		62.8,110.9 71.9,103 82.7,110.8 84.6,115 90.9,117.1 90.7,121.4 86.7,124.3 77.4,126.3 	"/>
	<polygon id="_x35_9201_ERQUINGHEM-LE-SEC" class="st1" points="76.1,143.2 73.7,143.8 70.6,140 69,133.1 76.2,134.5 79.3,140.3 	
		"/>
	<polygon id="_x35_9202_ERQUINGHEM-LYS" class="st1" points="33.1,107.8 28.5,102.9 21.9,101.3 16.4,95.4 16.7,94.4 20,85.7 
		28.1,89.7 38.1,83.3 45.1,86.7 40.2,94.7 42.7,101.3 	"/>
	<polygon id="_x35_9208_ESCOBECQUES" class="st1" points="76.2,134.5 69,133.1 67.7,133.2 68.8,127.3 77.4,126.3 77.5,127.4 
		79.3,131.5 	"/>
	<polygon id="_x35_9220_FACHES-THUMESNIL" class="st1" points="145.9,160.6 137.7,159.6 134.9,156.5 133.4,147.9 129.9,145.3 
		134.5,137.9 137.6,141 144.7,154.1 	"/>
	<polygon id="_x35_9247_FOREST-SUR-MARQUE" class="st1" points="195.7,120.6 194.3,125.1 191.9,125 188.2,122 190.5,118.2 	"/>
	<polygon id="_x35_9250_FOURNES-EN-WEPPES" class="st1" points="51.2,163.4 46.6,160.7 45.9,149.6 49,143.5 55.1,138.1 57.3,142.3 
		63.7,145.1 67.9,153.4 60.7,158.5 60.5,160.8 	"/>
	<polygon id="_x35_9252_FRELINGHIEN" class="st1" points="86,87.5 73,72.5 68.7,71.1 72.3,64.6 72.4,54.8 75.5,51.3 80.5,56.4 
		83.1,62.7 89.2,65.7 96.2,77.7 90.4,86.6 	"/>
	<polygon id="_x35_9256_FRETIN" class="st1" points="176.5,178.4 170.3,182.6 155.5,182.2 154.1,180.1 149,167.8 148.6,166.9 
		155.3,164.9 166.1,156.1 167.1,158.2 175.7,161.5 180.3,166.7 181.6,175.4 	"/>
	<polygon id="_x35_9257_FROMELLES" class="st1" points="34.3,150.9 27.7,137.8 26.6,131.3 31.2,125.8 40.8,125.8 49,143.5 
		45.9,149.6 40.1,147.8 	"/>
	<polygon id="_x35_9275_GRUSON" class="st1" points="211.9,156 205.4,158.1 201.9,155 196.1,150.5 193.8,151.4 193.4,150.7 
		198.2,144.5 207.1,147.6 209.6,151.5 213,149.4 214.9,150.4 	"/>
	<polygon id="_x35_9278_HALLENNES-LEZ-HAUBOURDIN" class="st1" points="75.2,145.9 76.1,143.2 79.3,140.3 76.2,134.5 79.3,131.5 
		77.5,127.4 87.5,131.1 92.6,134.6 90.3,138.1 91,142.2 	"/>
	<polygon id="_x35_9279_HALLUIN" class="st1" points="169.7,31 162.6,24.3 155.3,30.4 150.9,28.3 146.3,19.1 152.1,14.3 156.5,5.5 
		162.8,9.4 172.6,7.8 179.3,20.6 177.7,25.2 	"/>
	<polygon id="_x35_9281_HANTAY" class="st1" points="40.8,196.9 36.9,190.1 47.5,185.8 50.3,192.4 	"/>
	<polygon id="_x35_9286_HAUBOURDIN" class="st1" points="99.7,158.9 94.5,157.6 95.9,147.7 91,142.2 90.3,138.1 92.6,134.6 
		93.9,132.7 102.9,132.7 109.8,144.5 107.4,143.9 98.8,148.1 98.2,150.5 100.9,154.4 	"/>
	<polygon id="_x35_9299_HEM" class="st1" points="200,120.7 195.7,120.6 190.5,118.2 187.5,106.8 183,107.5 179.5,104.5 184.7,94.6 
		195.2,95.8 196.8,94.1 199.9,97.8 201.4,99.6 205.6,101.3 206.8,105.8 200.7,113.5 	"/>
	<polygon id="_x35_9303_HERLIES" class="st1" points="34.8,171.3 30.4,168.9 24.1,158.1 30,155.9 34.3,150.9 40.1,147.8 45.9,149.6 
		46.6,160.7 	"/>
	<polygon id="_x35_9316_HOUPLIN-ANCOISNE" class="st1" points="114.5,169.7 110.6,178.2 97.8,171.6 96.1,173.4 89.2,167.8 94,162.4 
		94.5,157.6 99.7,158.9 108.9,162.5 108.9,164.9 	"/>
	<polygon id="_x35_9317_HOUPLINES" class="st1" points="70.2,99.8 65.4,92.1 57.1,87.3 55.8,81.3 58.5,78 62.9,77.2 64,70.6 
		68.7,71.1 73,72.5 86,87.5 82.5,91.9 79.9,95.8 73.2,96.2 	"/>
	<polygon id="_x35_9320_ILLIES" class="st1" points="22.1,186.5 18.2,182.7 19.1,170.6 15.9,161.2 24.1,158.1 30.4,168.9 
		34.8,171.3 37.5,175.8 31.5,181.7 	"/>
	<polygon id="_x35_9328_LAMBERSART" class="st1" points="125.8,110.9 117.8,119.6 105.9,107.8 108.1,107 109.5,102.6 112.7,99.7 
		114.2,93.6 	"/>
	<polygon id="_x35_9332_LANNOY" class="st1" points="201.4,99.6 199.9,97.8 202.2,96.3 203.9,97.4 	"/>
	<polygon id="_x35_9339_LEERS" class="st1" points="216.6,97.4 213.4,94.3 203.7,83.6 204.3,80.9 221.9,79.6 225.7,90.6 217.4,95.1 
			"/>
	<polygon id="_x35_9343_LESQUIN" class="st1" points="148.6,166.9 145.9,160.6 144.7,154.1 145.6,151.8 150.3,151.2 157.7,138.8 
		166.3,146 168.4,144.9 166.1,156.1 155.3,164.9 	"/>
	<polygon id="_x35_9346_LEZENNES" class="st1" points="168.4,144.9 166.3,146 157.7,138.8 151.6,137.1 149.4,133.4 160.3,132.4 	"/>
	<polygon id="_x35_9350_LILLE" class="st1" points="129.9,145.3 127.3,145.2 124.2,141.5 121.8,142 117.9,138.9 114.4,129.7 
		110.7,127.2 101.9,125 96.1,121 91.5,121.4 90.7,121.4 90.9,117.1 92.7,112.9 90.4,104.1 91.1,103.6 97.1,101.3 105.9,107.8 
		117.8,119.6 125.8,110.9 132.2,108.7 139.5,114 143.2,108.4 144.1,106.3 147.9,108.5 152.3,107.8 148.2,116.4 153.9,120.7 
		158.6,119.3 160.6,120.3 162.3,131.4 160.3,132.4 149.4,133.4 142.1,134.9 137.6,141 134.5,137.9 	"/>
	<polygon id="_x35_9352_LINSELLES" class="st1" points="135,59.1 131.1,55.2 127,56.3 120.8,50 122.6,46.1 126.7,44.4 131.2,42.3 
		133.9,38 144.8,33.1 152.7,42.6 155.3,49.5 151.7,56 148.5,52.5 143.9,52.2 139.5,57.8 	"/>
	<polygon id="_x35_9356_LOMPRET" class="st1" points="105.9,107.8 97.1,101.3 95,94.3 101.9,92.6 109.5,102.6 108.1,107 	"/>
	<polygon id="_x35_9360_LOOS" class="st1" points="127.3,145.2 121.5,151.9 117.5,151.5 109.8,144.5 102.9,132.7 103.9,128.8 
		110.7,127.2 114.4,129.7 117.9,138.9 121.8,142 124.2,141.5 	"/>
	<polygon id="_x35_9367_LYS-LEZ-LANNOY" class="st1" points="205.6,101.3 201.4,99.6 203.9,97.4 202.2,96.3 199.9,97.8 196.8,94.1 
		202.7,87.7 203.7,83.6 213.4,94.3 	"/>
	<polygon id="_x35_9368_LA_MADELEINE" class="st1" points="143.2,108.4 139.5,114 132.2,108.7 130.9,106.5 133.1,99.3 136.5,97.5 	
		"/>
	<polygon id="_x35_9371_LE_MAISNIL" class="st1" points="49,143.5 40.8,125.8 44.4,123.2 46.9,121.5 50.5,131.1 54.3,134.4 
		55.1,138.1 	"/>
	<polygon id="_x35_9378_MARCQ-EN-BAROEUL" class="st1" points="159.8,110.6 152.3,107.8 147.9,108.5 144.1,106.3 143.2,108.4 
		136.5,97.5 143.6,85.9 147.3,79.6 153.5,76.3 154.1,71.6 158.3,65.7 160.4,67.1 161.7,73.7 165.4,79.1 157.2,83.4 159.1,90.3 
		157,97.4 159.5,106.8 	"/>
	<polygon id="_x35_9386_MARQUETTE-LEZ-LILLE" class="st1" points="133.1,99.3 130.9,95.5 122.9,99.5 115.4,93.8 125,92.4 
		138.8,82.3 143.6,85.9 136.5,97.5 	"/>
	<polygon id="_x35_9388_MARQUILLIES" class="st1" points="50.3,192.4 47.5,185.8 36.9,190.1 32.3,186.1 31.5,181.7 37.5,175.8 
		41.2,170.7 49.8,172.7 49.8,179.3 54.2,180.9 55.7,185.3 52.3,191.1 	"/>
	<polygon id="_x35_9410_MONS-EN-BAROEUL" class="st1" points="158.6,119.3 153.9,120.7 148.2,116.4 152.3,107.8 159.8,110.6 
		161.6,111.6 	"/>
	<polygon id="_x35_9421_MOUVAUX" class="st1" points="165.4,79.1 161.7,73.7 160.4,67.1 166.3,61.9 171,62.4 174.7,69.1 170.7,78 	
		"/>
	<polygon id="_x35_9426_NEUVILLE-EN-FERRAIN" class="st1" points="168.8,43.5 170.8,39.5 169.7,31 177.7,25.2 179.3,20.6 
		189.8,37.5 178.6,43.1 	"/>
	<polygon id="_x35_9437_NOYELLES-LES-SECLIN" class="st1" points="123,165.5 117.8,173 114.5,169.7 108.9,164.9 108.9,162.5 
		99.7,158.9 109.3,161.5 110.3,159.3 	"/>
	<polygon id="_x35_9457_PERENCHIES" class="st1" points="91.1,103.6 82.5,91.9 86,87.5 90.4,86.6 95,94.3 97.1,101.3 	"/>
	<polygon id="_x35_9458_PERONNE-EN-MELANTOIS" class="st1" points="185.5,176.6 181.6,175.4 180.3,166.7 188,169.8 187,173.5 	"/>
	<polygon id="_x35_9470_PREMESQUES" class="st1" points="82.7,110.8 71.9,103 70.2,99.8 73.2,96.2 79.9,95.8 82.5,91.9 91.1,103.6 
		90.4,104.1 	"/>
	<polygon id="_x35_9477_PROVIN" class="st1" points="63,218.6 60.6,216 59.3,213.9 61,209.3 56.3,195.7 66,203.8 70.8,212.8 	"/>
	<polygon id="_x35_9482_QUESNOY-SUR-DEULE" class="st1" points="96.2,77.7 89.2,65.7 89,58.8 98,62.4 108.1,51.9 109.9,50.3 
		113.2,53.7 120.8,50 127,56.3 125.7,65.6 112.9,72.8 111.4,70.8 103.3,76.3 	"/>
	<polygon id="_x35_9487_RADINGHEM-EN-WEPPES" class="st1" points="54.3,134.4 50.5,131.1 46.9,121.5 54.6,113.9 63.1,119.3 
		68.8,127.3 67.7,133.2 	"/>
	<polygon id="_x35_9507_RONCHIN" class="st1" points="144.7,154.1 137.6,141 142.1,134.9 149.4,133.4 151.6,137.1 157.7,138.8 
		150.3,151.2 145.6,151.8 	"/>
	<polygon id="_x35_9508_RONCQ" class="st1" points="159.8,53.9 156.1,56.9 151.7,56 155.3,49.5 152.7,42.6 144.8,33.1 150.9,28.3 
		155.3,30.4 162.6,24.3 169.7,31 170.8,39.5 168.8,43.5 160.1,51.5 	"/>
	<polygon id="_x35_9512_ROUBAIX" class="st1" points="196.8,94.1 195.2,95.8 184.7,94.6 178.4,91.5 179.1,86.6 175.1,80.6 
		175.7,78.2 179.4,69.6 185.8,67.4 193.3,68.2 198.1,76.9 204.3,80.9 203.7,83.6 202.7,87.7 	"/>
	<polygon id="_x35_9522_SAILLY-LEZ-LANNOY" class="st1" points="200.5,120.8 200,120.7 200.7,113.5 206.8,105.8 208.4,104.3 
		217.9,108.4 219.6,112.1 217.6,116.1 220.5,119.6 212.8,115.7 208.6,118 203.8,117.3 	"/>
	<polygon id="_x35_9523_SAINGHIN-EN-MELANTOIS" class="st1" points="188,169.8 180.3,166.7 175.7,161.5 167.1,158.2 166.1,156.1 
		168.4,144.9 184.6,144.4 191,146.8 193.4,150.7 193.8,151.4 188.5,158.6 190.1,165.2 	"/>
	<polygon id="_x35_9524_SAINGHIN-EN-WEPPES" class="st1" points="52.4,194.5 52.3,191.1 55.7,185.3 54.2,180.9 49.8,179.3 
		49.8,172.7 49.1,167.8 51.2,163.4 60.5,160.8 66.1,181.7 59.3,188 58.5,192.8 57.4,194.2 	"/>
	<polygon id="_x35_9527_SAINT-ANDRE-LEZ-LILLE" class="st1" points="125.8,110.9 114.2,93.6 115.2,93.7 115.4,93.8 122.9,99.5 
		130.9,95.5 133.1,99.3 130.9,106.5 132.2,108.7 	"/>
	<polygon id="_x35_9550_SALOME" class="st1" points="36.2,197.7 23.6,199.9 18.7,198.1 17.5,196.2 23.9,190.6 22.1,186.5 
		31.5,181.7 32.3,186.1 36.9,190.1 40.8,196.9 	"/>
	<polygon id="_x35_9553_SANTES" class="st1" points="89.2,167.8 84.8,159.3 72.9,148.5 71.9,147 75.2,145.9 91,142.2 95.9,147.7 
		94.5,157.6 94,162.4 	"/>
	<polygon id="_x35_9560_SECLIN" class="st1" points="122.8,205.2 111.3,195 108.2,188.2 107.3,183.3 96.1,173.4 97.8,171.6 
		110.6,178.2 114.5,169.7 117.8,173 123,165.5 124.3,166.1 123.5,168.3 130,174.9 136.5,177.5 133.8,195.9 127.4,197.8 	"/>
	<polygon id="_x35_9566_SEQUEDIN" class="st1" points="92.6,134.6 87.5,131.1 91.5,121.4 96.1,121 101.9,125 110.7,127.2 
		103.9,128.8 102.9,132.7 93.9,132.7 	"/>
	<polygon id="_x35_9585_TEMPLEMARS" class="st1" points="136.5,177.5 130,174.9 123.5,168.3 124.3,166.1 128.7,158.8 134.9,156.5 
		137.7,159.6 135.6,166.4 140,171.8 	"/>
	<polygon id="_x35_9598_TOUFFLERS" class="st1" points="217.9,108.4 208.4,104.3 206.8,105.8 205.6,101.3 213.4,94.3 216.6,97.4 	
		"/>
	<polygon id="_x35_9599_TOURCOING" class="st1" points="175.7,78.2 173.9,77.9 170.7,78 174.7,69.1 171,62.4 166.3,61.9 165.9,57.2 
		159.8,53.9 160.1,51.5 168.8,43.5 178.6,43.1 189.8,37.5 191.6,43.9 195.4,46.2 185.2,62.9 185.8,67.4 179.4,69.6 	"/>
	<polygon id="_x35_9602_TRESSIN" class="st1" points="187.9,139.1 186.1,137.3 187.6,132.7 195.4,126.5 197.9,126.1 198.9,128.4 
		196.6,128.4 195,137.5 	"/>
	<polygon id="_x35_9609_VENDEVILLE" class="st1" points="140,171.8 135.6,166.4 137.7,159.6 145.9,160.6 148.6,166.9 149,167.8 	"/>
	<polygon id="_x35_9611_VERLINGHEM" class="st1" points="109.5,102.6 101.9,92.6 95,94.3 90.4,86.6 96.2,77.7 103.3,76.3 
		111.4,70.8 112.9,72.8 115.2,93.7 114.2,93.6 112.7,99.7 	"/>
	<polygon id="_x35_9636_WAMBRECHIES" class="st1" points="115.4,93.8 115.2,93.7 112.9,72.8 125.7,65.6 127,56.3 131.1,55.2 
		135,59.1 138,65.8 138.8,82.3 125,92.4 	"/>
	<polygon id="_x35_9643_WARNETON" class="st1" points="100.8,46 82.6,44.7 76.9,40.2 84.8,34.8 91.6,36.6 96.9,31.6 98,33.7 
		96.1,40.3 	"/>
	<polygon id="_x35_9646_WASQUEHAL" class="st1" points="168.4,92.7 167.6,99.5 163.4,107.2 159.5,106.8 157,97.4 159.1,90.3 
		157.2,83.4 165.4,79.1 170.7,78 173.9,77.9 	"/>
	<polygon id="_x35_9648_WATTIGNIES" class="st1" points="124.3,166.1 123,165.5 110.3,159.3 117.5,151.5 121.5,151.9 127.3,145.2 
		129.9,145.3 133.4,147.9 134.9,156.5 128.7,158.8 	"/>
	<polygon id="_x35_9650_WATTRELOS" class="st1" points="204.3,80.9 198.1,76.9 193.3,68.2 185.8,67.4 185.2,62.9 195.4,46.2 
		196.6,48.4 193.5,55.1 202.1,63.9 219.2,65.8 224.8,74.1 224.4,79.1 221.9,79.6 	"/>
	<polygon id="_x35_9653_WAVRIN" class="st1" points="72.1,181.8 70.5,180 66.1,181.7 60.5,160.8 60.7,158.5 67.9,153.4 72.9,148.5 
		84.8,159.3 89.2,167.8 83.9,173.9 81.7,176.5 	"/>
	<polygon id="_x35_9656_WERVICQ-SUD" class="st1" points="126.7,44.4 127,37.5 120.9,22.2 123.4,18.2 131.8,14.5 132.8,26.7 
		131.1,33.9 133.9,38 131.2,42.3 	"/>
	<polygon id="_x35_9658_WICRES" class="st1" points="37.5,175.8 34.8,171.3 46.6,160.7 51.2,163.4 49.1,167.8 49.8,172.7 
		41.2,170.7 	"/>
	<polygon id="_x35_9660_WILLEMS" class="st1" points="224.2,125.3 211.1,130.4 198.8,129.1 198.9,128.4 200.5,120.8 203.8,117.3 
		208.6,118 212.8,115.7 220.5,119.6 	"/>
	<polygon id="_x35_9670_DON" class="st1" points="58.5,192.8 59.3,188 66.1,181.7 70.5,180 72.1,181.8 72.5,184.1 65.7,191 	"/>
</g>
<path class="st2" d="M134.1,186.9h-24.6c-0.7,0-1.3-0.6-1.3-1.3v-5.2c0-0.7,0.6-1.3,1.3-1.3h24.6c0.7,0,1.3,0.6,1.3,1.3v5.2
	C135.4,186.4,134.8,186.9,134.1,186.9z"/>
<path class="st2" d="M142.7,126h-17.3c-0.7,0-1.3-0.6-1.3-1.3v-4.6c0-0.7,0.6-1.3,1.3-1.3h17.3c0.7,0,1.3,0.6,1.3,1.3v4.6
	C144,125.5,143.4,126,142.7,126z"/>
<text transform="matrix(1 0 0 1 110.7412 185.3997)" class="st3 st4">SECLIN</text>
<text transform="matrix(1 0 0 1 125.9957 124.823)" class="st3 st4">LILLE</text>
<path class="st2" d="M203.5,84.6h-27.6c-0.7,0-1.3-0.6-1.3-1.3v-4.7c0-0.7,0.6-1.3,1.3-1.3h27.6c0.7,0,1.3,0.6,1.3,1.3v4.7
	C204.8,84.1,204.2,84.6,203.5,84.6z"/>
<text transform="matrix(1 0 0 1 175.8404 83.2906)" class="st3 st4">ROUBAIX</text>
<path class="st2" d="M194.7,57.4h-36.1c-0.7,0-1.3-0.6-1.3-1.3v-5.1c0-0.7,0.6-1.3,1.3-1.3h36.1c0.7,0,1.3,0.6,1.3,1.3v5.1
	C196,56.9,195.4,57.4,194.7,57.4z"/>
<text transform="matrix(1 0 0 1 158.6718 55.9344)" class="st3 st4">TOURCOING</text>
<path class="st2" d="M200.9,218.7h-26.4c-0.7,0-1.3-0.6-1.3-1.3v-5.2c0-0.7,0.6-1.3,1.3-1.3h26.4c0.7,0,1.3,0.6,1.3,1.3v5.2
	C202.2,218.1,201.6,218.7,200.9,218.7z"/>
<text transform="matrix(1 0 0 1 174.1742 216.8491)" class="st3 st4">ORCHIES</text>
<path class="st2" d="M69.9,81H26c-0.7,0-1.3-0.6-1.3-1.3v-4.6c0-0.7,0.6-1.3,1.3-1.3h43.9c0.7,0,1.3,0.6,1.3,1.3v4.6
	C71.2,80.4,70.6,81,69.9,81z"/>
<text transform="matrix(1 0 0 1 26.5179 79.76)" class="st3 st4">ARMENTIERES</text>
<g>
	<path class="st2" d="M189.7,128h-24.6c-0.7,0-1.3-0.6-1.3-1.3v-6.5h27c0.1,0,0.1,0.1,0.1,0.1v6.3C191,127.4,190.4,128,189.7,128z"
		/>
	<path class="st2" d="M195.3,120.8h-36.7c-0.7,0-1.3-0.6-1.3-1.3v-5.2c0-0.7,0.6-1.3,1.3-1.3h36.7c0.7,0,1.3,0.6,1.3,1.3v5.2
		C196.6,120.2,196,120.8,195.3,120.8z"/>
	<text transform="matrix(1 0 0 1 158.5385 118.8631)"><tspan x="0" y="0" class="st3 st4">VILLENEUVE </tspan><tspan x="7.2" y="7.2" class="st3 st4">D’ASCQ</tspan></text>
</g>
<path class="st2" d="M87.4,169.6H62.8c-0.7,0-1.3-0.6-1.3-1.3v-5.2c0-0.7,0.6-1.3,1.3-1.3h24.6c0.7,0,1.3,0.6,1.3,1.3v5.2
	C88.7,169.1,88.1,169.6,87.4,169.6z"/>
<text transform="matrix(1 0 0 1 63.0833 167.9489)" class="st3 st4">WAVRIN</text>
</svg>
